Coordinates
version=1
nRows=22
nColumns=33
inDegrees=yes

Units are S.I. units (second, meters, Newtons, ...)
Angles are in degrees.

endheader
time	ground_thorax_rot_x	ground_thorax_rot_y	ground_thorax_rot_z	ground_thorax_tx	ground_thorax_ty	ground_thorax_tz	clav_prot_r	clav_elev_r	scapula_abduction_r	scapula_elevation_r	scapula_upward_rot_r	scapula_winging_r	shoulder_elv_r	plane_of_elev_r	axial_rot_r	elbow_flexion_r	pro_sup_r	wrist_flex_r	wrist_dev_r	clav_prot_l	clav_elev_l	scapula_abduction_l	scapula_elevation_l	scapula_upward_rot_l	scapula_winging_l	shoulder_elv_l	plane_of_elev_l	axial_rot_l	elbow_flexion_l	pro_sup_l	wrist_flex_l	wrist_dev_l	
3.9100	-38.627970	-4.015870	1.655976	-45.399320	800.122359	7.754057	5.570992	-45.000000	44.999942	-45.000000	-9.861204	-5490.714430	-116.390232	150.669483	-107.752292	1809.392301	-348.272311	17.078230	10.963432	16.324041	40.602391	-44.999983	-40.031787	-27.959305	3679.176484	-3701.101738	135.036153	-176.172171	366.089854	23.282761	13.562161	-19.349939	
3.9200	-38.494659	-4.275298	1.731186	-43.905263	798.802192	8.105373	5.680864	-45.000000	44.999896	-45.000000	-10.227199	-5490.554148	-116.435090	150.727895	-107.650433	1809.231132	-348.721134	16.860816	11.044946	16.161324	40.452122	-44.999970	-39.785009	-27.814438	3679.219395	-3701.293391	135.190227	-177.253117	365.923200	22.605460	13.382911	-19.199737	
3.9300	-38.370885	-4.484082	1.745667	-42.545486	797.555200	8.426515	5.730238	-45.000000	44.999813	-45.000000	-10.514394	-5490.368226	-116.466211	150.818128	-107.575550	1809.057463	-349.167328	16.649623	11.154340	16.063038	40.343985	-44.999947	-39.554847	-27.552907	3679.232932	-3701.504755	135.407813	-178.323738	365.774325	21.956615	13.188373	-19.069016	
3.9400	-38.247966	-4.659260	1.724274	-41.472089	796.476275	8.689255	5.764207	-45.000000	44.999665	-45.000000	-10.706994	-5490.252858	-116.510434	150.894096	-107.340845	1808.903577	-349.617787	16.481083	11.231728	15.938035	40.224579	-44.999905	-39.345472	-27.351786	3679.245830	-3701.639819	135.553578	-179.024023	365.633797	21.478537	13.047353	-18.973175	
3.9500	-38.134365	-4.792204	1.652088	-40.712992	795.564977	8.884735	5.762141	-45.000000	44.999401	-45.000000	-10.814266	-5490.171555	-116.547642	150.975016	-107.029217	1808.772881	-350.052837	16.355312	11.310683	15.832874	40.124488	-44.999829	-39.164148	-27.138407	3679.259902	-3701.741849	135.676710	-179.491015	365.506159	21.116549	12.920324	-18.911265	
3.9600	-38.035743	-4.883801	1.534732	-40.318131	794.832850	9.003090	5.736338	-45.000000	44.998927	-45.000000	-10.856574	-5490.132442	-116.587069	151.055984	-106.662863	1808.660353	-350.452853	16.273623	11.383427	15.743657	40.060341	-44.999694	-39.020744	-26.935290	3679.279321	-3701.806270	135.768526	-179.746976	365.392340	20.858595	12.813324	-18.881995	
3.9700	-37.955628	-4.948355	1.390702	-40.305376	794.266386	9.043566	5.695066	-45.000000	44.998077	-45.000000	-10.877781	-5490.126446	-116.617601	151.138860	-106.278764	1808.574988	-350.791180	16.236268	11.461990	15.681722	40.029806	-44.999453	-38.918098	-26.742463	3679.314893	-3701.857137	135.840253	-179.871226	365.286380	20.660773	12.704573	-18.877894	
3.9800	-37.895407	-4.993375	1.233976	-40.678174	793.842108	9.012326	5.657710	-45.000000	44.996555	-45.000000	-10.913394	-5490.156648	-116.646881	151.215556	-105.912415	1808.505211	-351.045514	16.233522	11.532887	15.641420	40.044373	-44.999020	-38.859272	-26.582303	3679.368760	-3701.897575	135.893235	-179.944220	365.191249	20.484060	12.606993	-18.890887	
3.9900	-37.848510	-5.050777	1.102141	-41.439528	793.539519	8.919736	5.638687	-45.000000	44.993832	-45.000000	-11.019997	-5490.228216	-116.663104	151.275305	-105.546968	1808.462132	-351.193927	16.263517	11.601202	15.612896	40.068843	-44.998244	-38.831362	-26.482035	3679.451505	-3701.939445	135.933336	-179.979136	365.100854	20.305325	12.504293	-18.912661	
4.0000	-37.817162	-5.123621	1.002504	-42.590258	793.340810	8.778297	5.654139	-45.000000	44.988944	-45.000000	-11.205676	-5490.342468	-116.676678	151.322657	-105.187388	1808.431403	-351.225670	16.313802	11.639922	15.588645	40.108565	-44.996854	-38.848985	-26.482144	3679.548162	-3701.974467	135.959528	-179.990340	365.030069	20.116448	12.432662	-18.941469	
4.0100	-37.799213	-5.226911	0.952430	-44.127400	793.231343	8.600979	5.703457	-45.000000	44.980215	-45.000000	-11.487959	-5490.480766	-116.664257	151.375356	-104.817920	1808.428426	-351.133658	16.381836	11.661813	15.590346	40.149962	-44.994367	-38.907161	-26.588066	3679.651016	-3702.011841	135.991011	-179.988986	364.976815	19.901801	12.366310	-18.971893	
4.0200	-37.797578	-5.353861	0.943489	-46.043438	793.199433	8.399393	5.798929	-45.000000	44.964505	-45.000000	-11.853302	-5490.641287	-116.633535	151.437962	-104.436441	1808.448761	-350.921445	16.460294	11.647453	15.619828	40.209367	-44.989902	-39.014992	-26.830505	3679.751325	-3702.032258	136.014608	-179.984582	364.950667	19.656286	12.327116	-19.002761	
4.0300	-37.811898	-5.511817	0.982747	-48.326215	793.237213	8.183733	5.939638	-45.000000	44.936571	-45.000000	-12.312925	-5490.819177	-116.580586	151.509602	-104.020929	1808.498295	-350.594158	16.545717	11.615704	15.694370	40.277550	-44.981936	-39.162422	-27.206469	3679.846755	-3702.034410	136.035295	-179.974930	364.938210	19.372286	12.274505	-19.026721	
4.0400	-37.848895	-5.690521	1.058809	-50.959693	793.339597	7.961424	6.124975	-45.000000	44.885954	-45.000000	-12.856385	-5491.017396	-116.525350	151.587891	-103.570271	1808.565289	-350.169334	16.631465	11.551002	15.807453	40.365193	-44.967574	-39.363077	-27.732833	3679.928415	-3702.005349	136.036354	-179.955269	364.942936	19.059974	12.232959	-19.044853	
4.0500	-37.908765	-5.903428	1.191745	-53.924660	793.503618	7.736643	6.342283	-45.000000	44.796899	-45.000000	-13.511213	-5491.240577	-116.472360	151.663468	-103.060139	1808.647434	-349.667512	16.715047	11.472419	15.976004	40.457977	-44.942104	-39.612928	-28.408882	3679.988811	-3701.950647	136.023460	-179.920417	364.951726	18.724708	12.169038	-19.051939	
4.0600	-37.990513	-6.176171	1.414026	-57.199816	793.726199	7.508143	6.575457	-45.000000	44.632872	-45.000000	-14.344961	-5491.481386	-116.423252	151.722421	-102.477288	1808.736132	-349.112520	16.795703	11.373928	16.197594	40.543973	-44.895765	-39.918027	-29.266601	3680.017855	-3701.867112	135.994642	-179.859357	364.969574	18.373027	12.106820	-19.052390	
4.0700	-38.094687	-6.531225	1.754835	-60.763021	794.004605	7.270568	6.806055	-45.000000	44.351622	-45.000000	-15.432155	-5491.719533	-116.372354	151.750566	-101.841853	1808.822957	-348.523173	16.869723	11.268766	16.465869	40.610767	-44.814755	-40.284090	-30.307876	3680.001515	-3701.760484	135.958141	-179.770277	364.989442	18.016926	12.032621	-19.045783	
4.0800	-38.232084	-7.034605	2.307040	-64.592595	794.336238	7.014823	7.006941	-45.000000	43.812740	-45.000000	-16.998855	-5491.864140	-116.289267	151.747916	-101.159458	1808.904366	-347.910218	16.937131	11.139144	16.774717	40.652891	-44.664071	-40.745514	-31.628696	3679.899928	-3701.607265	135.907740	-179.628712	365.019129	17.644134	11.994727	-19.042316	
4.0900	-38.414375	-7.711441	3.105074	-68.668271	794.721278	6.732123	7.178143	-45.000000	42.945372	-45.000000	-19.165394	-5491.866417	-116.153656	151.703008	-100.520153	1808.975991	-347.277741	16.992609	10.989050	17.086509	40.689863	-44.409704	-41.334586	-33.253866	3679.678473	-3701.387363	135.836752	-179.447830	365.059519	17.279036	11.976884	-19.042526	
4.1000	-38.638368	-8.566727	4.142170	-72.971653	795.163770	6.416202	7.317159	-45.000000	41.751053	-45.000000	-21.936460	-5491.706635	-115.946969	151.620829	-99.953212	1809.037110	-346.615666	17.037808	10.820575	17.383508	40.720305	-44.031801	-42.042343	-35.147535	3679.345507	-3701.092025	135.741851	-179.242156	365.112896	16.955764	11.986695	-19.052065	
4.1100	-38.886018	-9.509459	5.282657	-77.486444	795.674051	6.067286	7.442981	-45.000000	40.385288	-45.000000	-25.029184	-5491.459588	-115.683000	151.507695	-99.517256	1809.085444	-345.915816	17.071130	10.649329	17.623260	40.754422	-43.554259	-42.813957	-37.124244	3678.957724	-3700.744847	135.637968	-179.071470	365.181423	16.752584	11.997102	-19.072951	
4.1200	-39.126677	-10.455696	6.414003	-82.197169	796.266485	5.690481	7.554322	-45.000000	38.989933	-45.000000	-28.170252	-5491.197447	-115.370642	151.381230	-99.169863	1809.128426	-345.172837	17.097340	10.481257	17.807437	40.767714	-43.023469	-43.554728	-39.027162	3678.592418	-3700.371165	135.543023	-178.959164	365.266539	16.705677	12.010517	-19.110733	
